<?xml version="1.0" encoding="UTF-8"?>
<!DOCTYPE svg PUBLIC "-//W3C//DTD SVG 1.1//EN" "http://www.w3.org/Graphics/SVG/1.1/DTD/svg11.dtd">
<!-- Creator: CorelDRAW 2017 -->
<svg xmlns="http://www.w3.org/2000/svg" xml:space="preserve" width="2480px" height="3508px" version="1.1" style="shape-rendering:geometricPrecision; text-rendering:geometricPrecision; image-rendering:optimizeQuality; fill-rule:evenodd; clip-rule:evenodd"
viewBox="0 0 248000 350743"
 xmlns:xlink="http://www.w3.org/1999/xlink">
 <defs>
  <style type="text/css">
   <![CDATA[
    .fil13 {fill:none}
    .fil32 {fill:#1649BD}
    .fil14 {fill:#74B5F1}
    .fil9 {fill:#A1D7F2}
    .fil15 {fill:#E8E8E8}
    .fil33 {fill:#E8E8E8;fill-opacity:0.050980}
    .fil4 {fill:#4583FF;fill-opacity:0.101961}
    .fil34 {fill:#E8E8E8;fill-opacity:0.101961}
    .fil24 {fill:#04234D;fill-opacity:0.200000}
    .fil5 {fill:#052D62;fill-opacity:0.200000}
    .fil12 {fill:white;fill-opacity:0.200000}
    .fil7 {fill:#052D62;fill-opacity:0.301961}
    .fil23 {fill:white;fill-opacity:0.301961}
    .fil6 {fill:#04234D;fill-opacity:0.501961}
    .fil10 {fill:#052D62;fill-opacity:0.501961}
    .fil0 {fill:url(#id3)}
    .fil31 {fill:url(#id4)}
    .fil30 {fill:url(#id5)}
    .fil3 {fill:url(#id6)}
    .fil19 {fill:url(#id7)}
    .fil20 {fill:url(#id8)}
    .fil26 {fill:url(#id9)}
    .fil22 {fill:url(#id10)}
    .fil27 {fill:url(#id11)}
    .fil11 {fill:url(#id12)}
    .fil18 {fill:url(#id13)}
    .fil21 {fill:url(#id14)}
    .fil29 {fill:url(#id15)}
    .fil28 {fill:url(#id16)}
    .fil16 {fill:url(#id17)}
    .fil17 {fill:url(#id18)}
    .fil8 {fill:url(#id19)}
    .fil2 {fill:url(#id20)}
    .fil1 {fill:url(#id21)}
    .fil25 {fill:url(#id22);fill-opacity:0.301961}
   ]]>
  </style>
     <clipPath id="id0">
      <path d="M81884 78725l14248 -6250 2750 500 6999 -2124 3874 -125 5125 -1464 3187 839 -2625 3812 -62 2249 -375 2063 -1125 3249 -5187 188 -1000 812 -3562 813 -2812 749 -4687 -249 -2187 -1188 -5125 -125 -2687 -1375 -3812 -562 -937 -1812z"/>
     </clipPath>
     <clipPath id="id1">
      <path d="M88773 116808l-5749 -4872 -8374 -2875 -6500 -3749 -15123 -4875 -6874 375 -1000 2125 -17873 -4499 -10498 -250 -750 4124 2249 8499 4125 5997 66367 0z"/>
     </clipPath>
       <clipPath id="id2">
        <path d="M128138 96183l5749 -2624 6436 -764 4375 -1969 10249 -722 8999 1055 6686 -332 8999 493 -437 2759 -7125 3341 -15685 1527 -5374 1116 -9999 -471 -5156 -1951 -5218 -824 -2499 -634z"/>
       </clipPath>
  <linearGradient id="id3" gradientUnits="userSpaceOnUse" x1="100961" y1="2835" x2="100961" y2="86444">
   <stop offset="0" style="stop-opacity:1; stop-color:#1C9BE8"/>
   <stop offset="1" style="stop-opacity:1; stop-color:#E8E8E8"/>
  </linearGradient>
  <linearGradient id="id4" gradientUnits="userSpaceOnUse" x1="164992" y1="103005" x2="165178" y2="105140">
   <stop offset="0" style="stop-opacity:1; stop-color:#A1D7F2"/>
   <stop offset="1" style="stop-opacity:1; stop-color:#E8E8E9"/>
  </linearGradient>
  <linearGradient id="id5" gradientUnits="userSpaceOnUse" xlink:href="#id4" x1="175844" y1="98590" x2="176217" y2="102859">
  </linearGradient>
  <linearGradient id="id6" gradientUnits="userSpaceOnUse" x1="100907" y1="116808" x2="100907" y2="62759">
   <stop offset="0" style="stop-opacity:1; stop-color:#053D61"/>
   <stop offset="0.65098" style="stop-opacity:1; stop-color:#0C4E8A"/>
   <stop offset="1" style="stop-opacity:1; stop-color:#1360B4"/>
  </linearGradient>
  <linearGradient id="id7" gradientUnits="userSpaceOnUse" xlink:href="#id4" x1="91813" y1="83057" x2="91992" y2="85636">
  </linearGradient>
  <linearGradient id="id8" gradientUnits="userSpaceOnUse" xlink:href="#id4" x1="82839" y1="81787" x2="82722" y2="83480">
  </linearGradient>
  <linearGradient id="id9" gradientUnits="userSpaceOnUse" xlink:href="#id4" x1="164282" y1="88866" x2="164410" y2="90721">
  </linearGradient>
  <linearGradient id="id10" gradientUnits="userSpaceOnUse" xlink:href="#id4" x1="50470" y1="97793" x2="50470" y2="118298">
  </linearGradient>
  <linearGradient id="id11" gradientUnits="userSpaceOnUse" xlink:href="#id4" x1="139468" y1="89819" x2="139638" y2="92276">
  </linearGradient>
  <linearGradient id="id12" gradientUnits="userSpaceOnUse" xlink:href="#id4" x1="100936" y1="68949" x2="100937" y2="85219">
  </linearGradient>
  <linearGradient id="id13" gradientUnits="userSpaceOnUse" xlink:href="#id4" x1="112357" y1="82442" x2="112462" y2="83686">
  </linearGradient>
  <linearGradient id="id14" gradientUnits="userSpaceOnUse" xlink:href="#id4" x1="88582" y1="111006" x2="88374" y2="114012">
  </linearGradient>
  <linearGradient id="id15" gradientUnits="userSpaceOnUse" xlink:href="#id4" x1="134070" y1="99211" x2="133834" y2="102611">
  </linearGradient>
  <linearGradient id="id16" gradientUnits="userSpaceOnUse" xlink:href="#id4" x1="155134" y1="89891" x2="155370" y2="100759">
  </linearGradient>
  <linearGradient id="id17" gradientUnits="userSpaceOnUse" xlink:href="#id4" x1="119195" y1="76829" x2="119195" y2="78630">
  </linearGradient>
  <linearGradient id="id18" gradientUnits="userSpaceOnUse" xlink:href="#id4" x1="106552" y1="83879" x2="106380" y2="86368">
  </linearGradient>
  <linearGradient id="id19" gradientUnits="userSpaceOnUse" xlink:href="#id4" x1="105515" y1="36243" x2="105516" y2="72801">
  </linearGradient>
  <linearGradient id="id20" gradientUnits="userSpaceOnUse" x1="64554" y1="39184" x2="64554" y2="76334">
   <stop offset="0" style="stop-opacity:1; stop-color:#1C9BE8"/>
   <stop offset="1" style="stop-opacity:1; stop-color:#E8E8E9"/>
  </linearGradient>
  <linearGradient id="id21" gradientUnits="userSpaceOnUse" xlink:href="#id20" x1="50244" y1="28794" x2="50245" y2="62216">
  </linearGradient>
  <linearGradient id="id22" gradientUnits="userSpaceOnUse" x1="152626" y1="104878" x2="152626" y2="89505">
   <stop offset="0" style="stop-opacity:1; stop-color:#04234D"/>
   <stop offset="1" style="stop-opacity:1; stop-color:#052D62"/>
  </linearGradient>
 </defs>
 <g id="Layer_x0020_1">
  <metadata id="CorelCorpID_0Corel-Layer"/>
  <g id="_2163739595888">
   <rect class="fil0" x="5492" y="2835" width="189955" height="113973"/>
   <path class="fil1" d="M195447 56933l0 -10734 -1581 -2361 -502 -466 -546 -76 -1012 -1118c-594,-37 -1042,72 -1042,72l-394 395 -1975 -1867 -1113 -503c0,0 -467,-934 -719,-1077 -251,-144 -1687,-718 -1687,-718l-2298 2010 -395 1329 -611 0 -1759 1903 -862 -180 -2369 1078 -3519 -1796 -575 -1149 -718 -718 -1580 -2334 -1544 -1759 -1328 646 -1652 2334 -790 -108 -1975 2621 -1185 503 -2082 2190 -1150 -1041 -969 -503 -826 -1185 -1364 -143 -1724 1472 -1400 1328 -410 -42 -1960 1730 -3267 -4201 -1293 -610 -1221 -2370 -1687 -1113 -1293 754 -1616 1185 -1472 2585 -1320 464 -463 -64 -1012 -1118c-593,-37 -1041,72 -1041,72l-395 395 -1975 -1867 -1113 -503c0,0 -467,-934 -718,-1077 -252,-144 -1688,-718 -1688,-718l-2102 1839 -1207 -1732 -2298 -1293 -1508 -2369 -2190 -503 -1975 3411 -2542 2066 -863 -1276 -1544 -1759 -1329 646 -1651 2334 -790 -108 -1975 2621 -1185 503 -2083 2190 -1149 -1041 -970 -503 -825 -1185 -1365 -143 -1723 1472 -1401 1328 -410 -42 -1960 1730 -3267 -4201 -1293 -610 -1221 -2370 -1687 -1113 -1293 754 -1615 1185 -1473 2585 -1328 467 -1329 2298 -2333 -683 -1150 -2298 -2226 -1436 -1867 1365 -2800 -4022 -2298 -1293 -1508 -2369 -2191 -503 -1975 3411 -2872 2334c-1096,1065 -1822,1690 -3110,2298l-3267 4201 -1960 -1730 -410 42 -1400 -1328 -1724 -1472 -1364 143 -826 1185 -970 503 -1149 1041 -2083 -2190 -1185 -503 -1974 -2621 -790 108 -1652 -2334 -1329 -646 -1543 1759 -1580 2334 -719 718 -574 1149 -3519 1796 -2369 -1078 -862 180 -1760 -1903 -610 0 -395 -1329 -2298 -2010c0,0 -1436,574 -1688,718 -251,143 -718,1077 -718,1077l-1113 503 -1975 1867 -395 -395c0,0 -448,-109 -1041,-72l-1012 1118 -546 76 -502 466 -1582 2361 0 10734 46023 0 4517 0 52102 0 30695 0 56618 0z"/>
   <path class="fil2" d="M5492 69362l0 -14166 2087 -3117 663 -615 720 -100 1336 -1475c783,-50 1375,94 1375,94l521 522 2606 -2464 1469 -664c0,0 616,-1232 948,-1421 332,-190 2227,-948 2227,-948l3033 2653 521 1754 806 0 2322 2511 1137 -237 3128 1422 4644 -2369 758 -1517 948 -947 2085 -3081 2037 -2322 1754 853 2179 3081 1043 -143 2606 3460 1564 663 2748 2891 1517 -1375 1280 -663 1090 -1564 1801 -189 2274 1942 1848 1754 542 -56 2586 2283 4312 -5544 1706 -806 1611 -3127 2227 -1470 1706 996 2133 1563 1943 3412 1742 613 610 -85 1336 -1475c783,-50 1374,94 1374,94l522 522 2606 -2464 1469 -664c0,0 616,-1232 948,-1421 331,-190 2227,-948 2227,-948l2775 2428 1592 -2286 3033 -1706 1990 -3128 2891 -663 2606 4502 3355 2726 1139 -1684 2038 -2322 1753 853 2180 3081 1043 -143 2606 3460 1564 663 2748 2891 1517 -1375 1280 -663 1089 -1564 1801 -189 2275 1942 1848 1754 541 -56 2586 2283 4313 -5544 1706 -806 1611 -3128 2227 -1468 1706 995 2132 1563 1943 3412 1754 616 1753 3033 3080 -900 1517 -3033 2937 -1896 2465 1801 3696 -5307 3033 -1706 1990 -3128 2890 -663 2607 4502 3790 3080 1706 1658 2512 3128 3662 3175 0 14166 -74722 0 -40510 0 -74723 0z"/>
   <rect class="fil3" x="5492" y="70143" width="189955" height="46664"/>
   <path class="fil4" d="M53710 74794c-7561,375 -5186,1750 -4124,2375 1062,625 3062,1062 -3687,1374 -6749,313 11998,938 3374,2000 -8624,1063 -19435,1000 -14185,2062 5249,1063 7311,2250 3499,2750 -3812,500 -9061,250 -6374,1375 2687,1125 8437,1687 688,2687 -7749,1000 -13499,1000 -11499,-1125 2000,-2124 6249,-2749 1875,-3124 -4375,-375 -10374,750 -3250,-1625 7124,-2375 11999,-3000 4625,-3375 -7374,-375 -13749,-624 -11499,1000 2250,1625 -12436,3625 -5562,4062 6874,438 9124,1000 6124,2063 -2999,1062 5000,1499 2188,3499 -2812,2000 -13748,2375 -7312,4062 6437,1687 8124,3562 4374,5437 -3749,1874 63,3312 1750,3562 1688,250 22372,2312 16748,-188 -5624,-2499 -9311,-4812 -5499,-5374 3812,-562 -6937,-1250 687,-3125 7624,-1874 14561,-687 12874,-1937 -1688,-1250 -688,-2687 1999,-2937 2688,-250 13124,-1812 9999,-2937 -3124,-1125 -1499,-4375 4625,-2875 6124,1500 14873,1875 9749,3750 -5125,1875 -3750,3999 125,5374 3874,1375 7874,2250 375,2750 -7499,500 -11624,2750 -3625,2812 7999,62 9374,0 6499,1562 -2874,1563 3000,813 813,2250 -2188,1437 -20185,375 -14561,2375 5624,1999 9124,7624 18123,7624 8999,0 29746,375 21997,-3125 -7749,-3499 -875,-3749 -4249,-6749 -3375,-2999 14373,-2250 2125,-3999 -12249,-1750 -18623,-2250 -10374,-3750 8249,-1500 13248,-2625 5874,-2625 -7374,0 -17748,-625 -14248,-2124 3499,-1500 7749,-1375 2874,-3250 -4874,-1875 -11248,-6374 -2874,-7624 8374,-1250 17314,422 8470,-1601 -8845,-2024 -16907,-1461 -11282,-2211 5624,-750 10811,-875 5312,-1375 -5500,-500 -11062,688 -9687,-375 1375,-1062 6249,-1562 1125,-1687 -5124,-125 -8311,-1000 -6687,250 1625,1250 3687,1875 -187,1750 -3875,-125 -1875,-2129 -3062,-1096 -1188,1033 -250,1783 -2375,1408 -2125,-375 -2688,0 -2688,0z"/>
   <path class="fil5" d="M92347 74944c-4125,563 -10374,1250 -9812,1500 563,250 -1187,688 -2749,688 -1563,0 -2090,1249 -3031,1656 -942,406 5405,1593 1218,2031 -4187,437 -10686,1999 -4062,2937 6625,937 8437,562 6125,1437 -2313,875 562,2750 2749,2875 2187,125 -8936,1062 -437,2062 8499,1000 16060,1062 14061,62 -2000,-999 -500,-1874 1687,-1624 2187,250 4499,2499 7874,2249 3374,-250 2812,-1187 2812,-1187 0,0 10311,-562 8499,-1562 -1812,-1000 -4999,-1063 -1437,-2000 3562,-937 7124,-2750 5687,-3187 -1438,-438 -6437,-750 -875,-1250 5561,-500 11561,-2375 8812,-2875 -2750,-500 -4687,-937 -2875,-1625 1812,-687 4437,-687 1375,-1249 -3062,-563 -35621,-938 -35621,-938z"/>
   <path class="fil6" d="M71246 110651c10811,687 25215,1500 24715,3125 -500,1624 -6458,2155 -1584,2530 4874,375 7990,502 7990,502l-94613 0c0,0 1187,-2220 5687,-1970 4499,250 7061,-62 5312,-875 -1750,-812 -5500,-1250 -1500,-1937 3999,-687 53993,-1375 53993,-1375z"/>
   <polygon class="fil7" points="5492,70143 195447,70143 195447,71074 5492,71074 "/>
   <g>
    <path class="fil8" d="M5492 70143l0 -7574 3440 -5138 1093 -1015 1188 -164 2202 -2432c1290,-82 2265,156 2265,156l859 859 4297 -4062 2421 -1093c0,0 1016,-2031 1563,-2344 547,-312 3671,-1562 3671,-1562l5000 4374 859 2890 1328 0 3827 4141 1875 -391 5156 2344 7655 -3906 1250 -2500 1562 -1562 3437 -5078 3360 -3827 2890 1406 3593 5077 1719 -234 4296 5702 2578 1094 4530 4765 2501 -2266 2109 -1093 1797 -2578 2968 -313 3750 3203 3046 2890 893 -91 4263 3763 7109 -9140 2812 -1328 2656 -5155 3671 -2422 2812 1641 3516 2577 3202 5625 2891 1015 2890 5000 5077 -1485 2500 -4999 4843 -3125 4062 2969 6093 -8749 4999 -2813 3281 -5155 4765 -1094 4297 7421 6249 5078 2812 2734 4140 5155 6037 5235 0 7574 -189955 0z"/>
    <path class="fil9" d="M5770 62155l3162 -4724 1093 -1015 1188 -164 2202 -2432c1290,-82 2265,156 2265,156l859 859 4297 -4062 2421 -1093c0,0 1016,-2031 1563,-2344l3671 -1562 3624 3170 -3208 -1400 -2226 1680 -78 1796 1797 1133 -2188 235 -2148 -586 -2500 2148 -2070 976 312 1289 -2226 -390 -390 1757 2929 1563 1758 -352 468 2344 2422 78 -3125 1640 -1640 -703 -2422 1367 -39 -1562 -3710 0 -1797 -1328 -1953 820 117 -1250 -2734 1719 -1694 237 0 0z"/>
    <polygon class="fil9" points="63518,42579 62201,47257 62280,50928 64076,49679 63061,53975 63529,56396 65404,56240 65248,60537 63842,62567 58922,63320 55474,66349 54080,65664 51109,67645 49078,66551 49938,64677 47750,64130 49625,60849 46536,59132 54191,55226 55441,52726 57003,51164 60440,46086 "/>
    <polygon class="fil9" points="70248,49209 69037,49873 69389,51514 68256,50850 69037,53037 67983,54990 69428,60106 69486,56212 70248,56162 71654,55185 71771,52647 70600,50889 70756,49600 72006,49444 72002,48508 70283,48742 "/>
    <polygon class="fil9" points="83406,60069 82883,61844 83430,62820 82454,64773 83743,66179 83743,67585 86437,68158 88703,67312 90773,64187 89680,64109 89836,62508 88039,60789 90020,58900 90617,55790 90051,55751 90363,54364 91782,53925 89813,54132 88016,56710 85907,57803 "/>
    <polygon class="fil9" points="96861,57335 96712,58580 97258,60455 95540,59908 97063,61549 96360,63580 97376,66509 97297,64439 98196,64029 98625,62115 100207,62759 99309,61217 100285,60514 102078,61240 100470,59821 99577,59912 "/>
    <polygon class="fil9" points="104733,63584 104289,65240 105891,65786 108234,64459 107219,66138 108390,67075 113585,67154 117530,64420 117452,61764 114718,62193 115069,58912 114288,56998 116553,55358 117491,55983 121865,56569 119170,55007 118819,53522 120108,50983 120029,48952 121318,47429 123232,49538 123232,47820 127105,49608 123793,47180 120981,45539 117310,47961 114654,53116 111842,54444 "/>
    <polygon class="fil9" points="130511,55382 129364,56256 126083,57154 129754,57076 131981,58013 132762,60435 131707,62310 131356,65161 132605,63638 132293,65903 132488,68481 134988,63520 138612,60718 136292,61397 133402,56397 "/>
    <polygon class="fil9" points="141369,59912 141042,62075 141589,63716 143229,62857 142331,64731 143307,66606 147135,68207 145338,66176 145690,63013 147994,60982 148033,58404 145533,58677 145807,56256 148814,53287 151688,53963 148712,51788 143869,54913 "/>
    <polygon class="fil9" points="152774,54757 153579,57232 156860,57310 158110,59341 161625,60513 165687,59966 168811,61138 166702,56998 163500,55435 163812,51686 161625,50124 157953,50592 159516,48093 164437,45827 165843,47389 166937,44421 166468,42234 168265,38719 171912,36946 167147,38040 163866,43195 158867,46008 "/>
    <polygon class="fil9" points="176209,44367 177638,47467 181075,51138 176935,50748 178927,52310 179708,54029 179434,55630 177989,55864 178888,59106 179356,57427 182286,57427 183457,56216 187129,56841 188222,58364 190761,59692 190292,61293 190488,63168 191152,61332 194158,61451 189410,57334 185270,52179 182793,49029 "/>
    <polygon class="fil9" points="34350,53038 32734,54145 31953,56488 33281,58715 31524,58285 32461,61136 30547,63363 28790,64886 31328,64300 34101,65472 37343,64691 40585,66175 39570,63128 42265,62074 43397,60121 42147,58558 39413,58910 38515,58363 38251,55822 35678,53038 "/>
   </g>
   <polygon class="fil7" points="5492,70143 195447,70143 195447,72136 5492,72136 "/>
   <polygon class="fil7" points="5492,70143 195447,70143 195447,73386 5492,73386 "/>
   <g>
    <path class="fil10" d="M87458 76818c-3593,437 -7592,937 -6999,1156 594,219 2063,562 -500,906 -2562,344 2313,1625 1563,2187 -750,563 -4687,2000 -1688,2844 3000,843 8437,-375 7374,343 -1062,719 -3155,3281 2688,3406 5843,125 10186,-1218 8967,-1843 -1218,-625 -2093,-844 -156,-813 1937,31 2781,125 2437,1125 -343,1000 2531,2375 6000,2219 3468,-157 7374,-875 5749,-2219 -1625,-1343 1094,-1187 2437,-1906 1344,-718 1156,-1562 -62,-1875 -1219,-312 -219,-2968 937,-2625 1156,344 2187,719 4656,438 2469,-281 4187,-2062 2500,-2687 -1688,-625 -7406,-125 -7562,-313 -156,-187 2375,-625 1125,-937 -1250,-312 -29466,594 -29466,594z"/>
    <polygon class="fil11" points="81884,78725 96132,72475 98882,72975 105881,70851 109755,70726 114880,69262 118067,70101 115442,73913 115380,76162 115005,78225 113880,81474 108693,81662 107693,82474 104131,83287 101319,84036 96632,83787 94445,82599 89320,82474 86633,81099 82821,80537 "/>
    <g style="clip-path:url(#id0)">
     <g>
      <g>
       <polygon id="1" class="fil12" points="107671,69581 110732,69581 97250,84904 94189,84904 "/>
       <polygon class="fil12" points="111528,69581 113059,69581 99577,84904 98046,84904 "/>
      </g>
      <g>
       <polygon class="fil12" points="90423,72518 93484,72518 80002,87841 76941,87841 "/>
       <polygon class="fil12" points="94280,72518 95811,72518 82329,87841 80798,87841 "/>
      </g>
     </g>
    </g>
    <polygon class="fil13" points="81884,78725 96132,72475 98882,72975 105881,70851 109755,70726 114880,69262 118067,70101 115442,73913 115380,76162 115005,78225 113880,81474 108693,81662 107693,82474 104131,83287 101319,84036 96632,83787 94445,82599 89320,82474 86633,81099 82821,80537 "/>
    <polygon class="fil14" points="118067,70101 115442,73913 115380,76162 115005,78225 113880,81474 108693,81662 107693,82474 104131,83287 101319,84036 96632,83787 94445,82599 89320,82474 86633,81099 90320,81661 97944,80880 101600,79568 105006,77131 108818,75287 112380,75069 113723,73386 "/>
    <polygon class="fil15" points="91016,74719 96041,72957 98635,73386 106071,71332 109836,70980 114898,69433 117093,70237 113805,72972 112380,75069 113931,73229 118067,70101 114880,69262 109755,70726 105881,70851 98882,72975 96132,72475 "/>
    <path class="fil9" d="M108846 75815c312,-375 3656,-360 3796,-203 141,156 1390,5093 937,5374 -453,281 -2468,94 -2562,-203 -93,-297 -1328,-3718 -1328,-3281 0,437 563,3640 47,3625 -515,-16 -1547,-3578 -890,-5312z"/>
    <path class="fil9" d="M105752 77596c0,0 2294,3812 1888,4250 -406,438 -2262,1113 -2434,457 -172,-657 -824,-2092 -824,-2092 0,0 -1067,-1584 1370,-2615z"/>
    <path class="fil9" d="M98082 81235c94,500 281,2219 906,2391 625,172 2312,359 2156,-78 -156,-438 -578,-2547 -156,-1563 421,985 234,1688 640,1625 406,-62 110,-3703 0,-3671 -109,31 -2968,765 -3546,1296z"/>
    <path class="fil9" d="M94395 81517c140,531 125,828 266,922 140,93 1148,992 1226,507 78,-484 -86,-1554 -312,-1577 -227,-24 -1188,39 -1180,148z"/>
    <polygon class="fil14" points="98882,72975 97786,73439 96310,74338 97612,73217 98446,72896 "/>
    <polygon class="fil14" points="104429,77543 101301,77454 105006,77131 104676,77657 "/>
    <g>
     <polygon class="fil14" points="117073,76864 115787,78228 116548,79015 119381,79330 121952,78647 120929,77165 "/>
     <polygon class="fil16" points="117073,76864 116562,77883 118988,78499 121564,78085 120929,77165 "/>
     <path class="fil9" d="M116687 78053c-59,13 -46,820 -46,820l971 92 6 -604 276 663 439 65 -66 -708 -1580 -328z"/>
     <polygon class="fil9" points="119251,78578 119474,79155 120110,79037 120340,78414 "/>
    </g>
    <g>
     <polygon class="fil14" points="109491,84131 111140,86139 110011,87154 106055,87317 102558,86128 104119,84178 "/>
     <polygon class="fil17" points="109491,84131 110101,85588 106679,86207 103150,85388 104119,84178 "/>
     <path class="fil9" d="M109911 85811c80,24 -16,1137 -16,1137l-1353 34 49 -834 -446 889 -615 48 159 -972 2222 -302z"/>
     <polygon class="fil9" points="106307,86290 105943,87066 105073,86842 104814,85959 "/>
    </g>
    <g>
     <polygon class="fil14" points="110933,82587 110039,83612 110568,84114 112539,84166 114327,83540 113615,82570 "/>
     <polygon class="fil18" points="110933,82587 110577,83326 112265,83612 114057,83172 113615,82570 "/>
     <path class="fil9" d="M110665 83437c-41,13 -32,573 -32,573l675 7 4 -420 192 444 306 20 -46 -489 -1099 -135z"/>
     <polygon class="fil9" points="112448,83651 112603,84039 113046,83920 113206,83473 "/>
    </g>
    <g>
     <polygon class="fil14" points="88880,83392 87231,85401 88361,86415 92316,86579 95813,85389 94253,83440 "/>
     <polygon class="fil19" points="88880,83392 88271,84850 91692,85469 95221,84649 94253,83440 91637,83119 "/>
     <path class="fil9" d="M88461 85073c-81,24 15,1137 15,1137l1353 34 -48 -834 445 889 615 48 -159 -972 -2221 -302z"/>
     <polygon class="fil9" points="92064,85552 92429,86328 93299,86104 93557,85221 "/>
    </g>
    <g>
     <polygon class="fil14" points="84764,82007 85847,83325 85105,83991 82509,84098 80214,83318 81238,82038 "/>
     <polygon class="fil20" points="84764,82007 85164,82964 82919,83370 80603,82832 81238,82038 82955,81828 "/>
     <path class="fil9" d="M85040 83110c53,16 -10,747 -10,747l-889 22 32 -548 -292 584 -404 31 105 -638 1458 -198z"/>
     <polygon class="fil9" points="82675,83425 82435,83934 81864,83787 81695,83207 "/>
    </g>
   </g>
   <g>
    <polygon class="fil14" points="92130,111310 94122,113735 92758,114960 87982,115157 83760,113721 85644,111367 "/>
    <polygon class="fil21" points="92130,111310 92867,113070 88736,113817 84475,112828 85644,111367 "/>
    <path class="fil9" d="M92638 113339c97,29 -19,1374 -19,1374l-1634 40 59 -1007 -538 1073 -743 59 192 -1175 2683 -364z"/>
    <polygon class="fil9" points="88286,113918 87846,114855 86796,114584 86484,113518 "/>
   </g>
   <g>
    <polygon class="fil22" points="88773,116808 83024,111936 74650,109061 68150,105312 53027,100437 46153,100812 45153,102937 27280,98438 16782,98188 16032,102312 18281,110811 22406,116808 "/>
    <g style="clip-path:url(#id1)">
     <g>
      <g>
       <polygon id="1" class="fil23" points="41780,92976 47833,92976 21178,123270 15126,123270 "/>
       <polygon class="fil23" points="49407,92976 52433,92976 25779,123270 22752,123270 "/>
      </g>
      <g>
       <polygon class="fil23" points="72218,101857 78271,101857 51616,132152 45564,132152 "/>
       <polygon class="fil23" points="79845,101857 82871,101857 56217,132152 53190,132152 "/>
      </g>
     </g>
    </g>
    <polygon class="fil13" points="88773,116808 83024,111936 74650,109061 68150,105312 53027,100437 46153,100812 45153,102937 27280,98438 16782,98188 16032,102312 18281,110811 22406,116808 "/>
    <polygon class="fil15" points="26782,114247 26625,109685 32062,110028 37468,110685 32031,108123 24907,106404 19439,101592 18189,98998 27125,98967 44873,103466 52341,105998 47779,102435 47498,101467 52747,101154 67464,105591 73475,108383 68150,105312 53027,100437 46153,100812 45153,102937 27280,98438 16782,98188 18470,101749 "/>
    <polygon class="fil14" points="16782,98188 18470,101749 24532,106811 32031,108123 37468,110685 31656,109498 25532,108998 26782,114247 30969,116808 22406,116808 18281,110811 16032,102312 "/>
    <polygon class="fil14" points="45153,102937 52341,105998 47342,102686 46153,100812 "/>
    <polygon class="fil14" points="74650,109061 79150,113248 77963,110810 83024,111936 "/>
    <path class="fil9" d="M18315 102527c0,0 3062,2313 3374,2906 313,594 1157,9874 1157,9874 0,0 312,-8780 624,-8311 313,468 1188,1094 1219,2093 31,1000 -219,7281 -531,7312 -312,31 -1281,250 -1625,-125 -343,-375 -3343,-4562 -3655,-5593 -313,-1031 -1282,-7562 -563,-8156z"/>
   </g>
   <g>
    <path class="fil24" d="M149876 89442c-4999,-62 -6811,500 -5874,-312 937,-812 2687,-1437 -1437,-1250 -4125,188 -8437,-554 -7624,1312 812,1867 -7937,438 -6937,1875 1000,1438 5562,2000 1187,2250 -4374,250 -22122,1500 -14998,3250 7124,1749 9312,2312 4187,3437 -5124,1124 -15560,812 -8374,2499 7187,1688 20060,4812 17435,5437 -2624,625 1500,3875 7999,3750 6500,-125 19123,500 14499,-1125 -4625,-1625 -11749,-4000 -3125,-3875 8624,125 4999,875 10249,1875 5249,1000 16873,2250 16998,125 125,-2125 8748,-1250 10248,-2000 1500,-749 15248,-1374 9374,-3249 -5874,-1875 -6437,-2375 -3812,-2875 2625,-500 5812,-2937 2687,-3312 -3124,-375 -6249,-312 -3187,-1750 3062,-1437 6187,-812 1813,-2249 -4375,-1438 -16874,-3062 -16061,-4000 812,-937 4437,-1875 -688,-2125 -5124,-250 -15810,-1312 -15623,63 188,1375 1750,1812 -1187,1750 -2937,-63 -7749,499 -7749,499z"/>
    <g>
     <path class="fil25" d="M136848 90928c-3469,594 -4437,1000 -3625,1563 812,562 2656,1780 -687,2280 -3344,500 -9656,1562 -7843,2125 1812,562 3187,1031 2218,1187 -968,156 -1406,906 438,1031 1843,125 3905,1188 1562,1438 -2344,250 -6093,1843 -1250,2656 4843,812 4093,2593 7530,2593 3437,0 9436,-1594 8155,-2625 -1281,-1031 5500,-593 7437,-94 1937,500 6218,219 8437,94 2218,-125 3374,438 1312,1281 -2062,844 437,2719 4937,2500 4499,-219 6562,-1344 5124,-1812 -1437,-469 -969,-813 -250,-688 719,125 4719,1000 7749,844 3031,-156 9655,-969 6906,-2781 -2750,-1813 -5562,-3375 -3312,-3562 2249,-188 7124,-1188 3812,-2937 -3312,-1750 -19310,-3562 -17998,-4312 1312,-750 3031,-1719 2062,-1906 -968,-188 -8467,-750 -10311,218 -1843,969 3500,2562 969,2968 -2531,407 -18029,360 -17201,-515 828,-875 2172,-1297 750,-1641 -1422,-343 -6921,95 -6921,95z"/>
     <g>
      <polygon class="fil14" points="162092,89054 160862,90551 161704,91307 164652,91429 167258,90542 166096,89089 "/>
      <polygon class="fil26" points="162092,89054 161637,90140 164187,90601 166817,89991 166096,89089 "/>
      <path class="fil9" d="M161779 90306c-60,18 11,848 11,848l1009 25 -37 -622 332 663 459 36 -119 -725 -1655 -225z"/>
      <polygon class="fil9" points="164464,90663 164736,91242 165384,91075 165577,90417 "/>
     </g>
     <g>
      <polygon class="fil14" points="136567,90068 134939,92050 136054,93051 139959,93212 143410,92039 141870,90114 "/>
      <polygon class="fil27" points="136567,90068 135965,91506 139342,92117 142825,91308 141870,90114 "/>
      <path class="fil9" d="M136153 91726c-80,24 15,1123 15,1123l1336 33 -48 -823 439 877 607 48 -157 -960 -2192 -298z"/>
      <polygon class="fil9" points="139710,92199 140069,92965 140928,92744 141183,91873 "/>
     </g>
     <g>
      <polygon class="fil14" points="128138,96183 127566,97192 129711,97936 135167,98808 139964,101260 152040,102182 161976,100745 172788,100620 176287,98370 181537,97370 179631,91320 "/>
      <polygon class="fil28" points="128138,96183 133887,93559 140323,92795 144698,90826 154947,90104 163946,91159 170632,90827 179631,91320 179194,94079 172069,97420 156384,98947 151010,100063 141011,99592 135855,97641 130637,96817 "/>
      <g style="clip-path:url(#id2)">
       <g>
        <g>
         <polygon id="1" class="fil23" points="150122,85557 154179,85557 136316,105859 132259,105859 "/>
         <polygon class="fil23" points="155234,85557 157262,85557 139399,105859 137371,105859 "/>
        </g>
        <g>
         <polygon class="fil23" points="171245,85557 175301,85557 157438,105859 153382,105859 "/>
         <polygon class="fil23" points="176356,85557 178384,85557 160521,105859 158493,105859 "/>
        </g>
       </g>
      </g>
      <polygon class="fil13" points="128138,96183 133887,93559 140323,92795 144698,90826 154947,90104 163946,91159 170632,90827 179631,91320 179194,94079 172069,97420 156384,98947 151010,100063 141011,99592 135855,97641 130637,96817 "/>
      <polygon class="fil15" points="128138,96183 133887,93559 140323,92795 144698,90826 154947,90104 163946,91159 170632,90827 179631,91320 179194,94079 178881,94225 179287,91663 170288,91171 163602,91503 154603,90448 144354,91169 139980,93139 133543,93903 128401,96250 "/>
      <polygon class="fil14" points="155477,100055 153727,98180 150602,97368 154633,97712 158445,99774 "/>
      <path class="fil9" d="M177411 95446c78,-297 1500,-1234 1891,-1125 390,110 2077,2672 1859,2813 -219,140 -4234,1031 -4656,937 -422,-94 -203,-2312 78,-2297 281,16 969,1797 1484,1485 516,-313 -968,-1625 -656,-1813z"/>
      <path class="fil9" d="M171834 97711c343,188 1140,2688 812,2641 -328,-47 -3312,250 -3531,-63 -219,-312 -406,-2171 63,-2312 468,-141 2234,-219 2656,-266z"/>
      <path class="fil9" d="M167756 98071c312,172 687,2109 437,2203 -250,93 -1203,328 -1343,78 -141,-250 94,-2188 906,-2281z"/>
      <path class="fil9" d="M152461 100133c578,-203 1875,-797 2031,-516 156,282 484,2422 562,1703 78,-718 -295,-1736 -38,-1758 257,-23 570,-148 913,-85 344,62 719,1781 547,1843 -172,63 -3375,610 -3625,563 -250,-47 -671,-1469 -390,-1750z"/>
      <path class="fil9" d="M138657 98961c219,-23 1953,610 2101,774 149,164 -539,1429 -664,1390 -125,-39 -422,-1554 -500,-1539 -78,16 336,1398 32,1281 -305,-117 -1945,-672 -969,-1906z"/>
      <path class="fil9" d="M130423 97016c250,-86 1727,70 1719,219 -8,148 -55,882 -360,859 -304,-24 -1726,-227 -1796,-320 -71,-94 211,-703 437,-758z"/>
      <path class="fil9" d="M148342 100163c141,-62 946,0 1071,63 125,62 593,1492 257,1586 -336,93 -1492,-172 -1492,-172l164 -1477z"/>
     </g>
     <g>
      <polygon class="fil14" points="138085,99554 140339,102299 138795,103685 133390,103908 128613,102283 130745,99619 "/>
      <polygon class="fil29" points="138085,99554 138918,101546 134243,102391 129422,101272 130745,99619 "/>
      <path class="fil9" d="M138659 101851c110,32 -21,1554 -21,1554l-1850 46 67 -1140 -608 1214 -841 66 217 -1328 3036 -412z"/>
      <polygon class="fil9" points="133735,102505 133237,103566 132048,103260 131696,102053 "/>
     </g>
     <g>
      <polygon class="fil14" points="171898,99016 169643,102471 171187,104216 176592,104497 181370,102451 179238,99097 "/>
      <polygon class="fil30" points="171898,99016 171064,101523 175739,102588 180561,101179 179238,99097 "/>
      <path class="fil9" d="M171324 101907c-110,41 21,1956 21,1956l1849 58 -67 -1435 609 1529 840 83 -217 -1672 -3035 -519z"/>
      <polygon class="fil9" points="176247,102731 176745,104066 177934,103681 178287,102162 "/>
     </g>
     <g>
      <polygon class="fil14" points="163019,103219 161892,104946 162664,105818 165366,105959 167755,104936 166689,103259 "/>
      <polygon class="fil31" points="163019,103219 162602,104472 164940,105004 167351,104300 166689,103259 "/>
      <path class="fil9" d="M162732 104664c-55,20 10,978 10,978l925 29 -33 -718 304 765 420 42 -108 -837 -1518 -259z"/>
      <polygon class="fil9" points="165194,105076 165443,105744 166037,105551 166214,104791 "/>
     </g>
    </g>
   </g>
   <path class="fil4" d="M165323 72795c-4499,591 -4312,1062 -3125,1437 1188,375 250,688 -2749,1125 -3000,438 -15623,188 -6625,1000 8999,812 -7561,687 -11123,2187 -3562,1500 1999,1375 1999,2062 0,688 -19810,875 -10811,1813 8999,937 4375,1937 2500,2499 -1875,563 2562,750 6374,625 3812,-125 5812,-812 4937,-1562 -875,-750 -3375,-1937 2125,-2187 5499,-250 -5000,-63 1375,-1500 6374,-1437 11373,-1188 9873,-1687 -1500,-500 0,-1688 1937,-1813 1938,-125 8687,-62 6812,2125 -1875,2187 -11936,2749 -3562,2999 8374,250 875,1750 2937,2563 2062,812 15373,0 14061,562 -1313,563 -4500,2063 1999,2125 6500,62 4375,375 5937,1062 1562,688 5999,-624 3062,-1062 -2937,-438 -3124,-375 -1937,-1125 1187,-750 3062,-875 -188,-1625 -3249,-750 -7623,-562 -4061,-1375 3562,-812 9311,-1374 3312,-2312 -6000,-937 -17248,125 -12436,-1812 4812,-1937 -3750,-2500 812,-3375 4562,-875 1125,-1375 -2875,-1312 -3999,62 -12186,625 -10248,-125 1937,-750 4187,-1971 -312,-1312z"/>
   <path class="fil32" d="M10016 93934c2101,-82 3674,-1391 4801,-1167 1126,223 2101,1116 3663,1197 1563,81 1238,102 224,163 -1015,60 -2040,-112 -2791,-518 -525,-284 -921,-513 -1399,-525 -20,125 -264,183 -454,253 -222,82 -209,134 -232,242 -23,107 -461,392 -778,320 -317,-72 248,-330 -255,-219 -361,80 -724,200 -782,191 -519,111 -1159,159 -1997,63z"/>
   <path class="fil32" d="M48160 94897c2567,-100 4489,-1699 5866,-1427 1377,273 2567,1364 4477,1464 1910,99 1513,124 273,198 -1240,74 -2493,-136 -3410,-632 -642,-347 -1125,-627 -1710,-641 -24,152 -322,223 -555,308 -271,100 -255,164 -283,296 -28,131 -563,479 -951,391 -387,-88 304,-403 -311,-268 -442,98 -885,244 -956,234 -635,135 -1417,194 -2440,77z"/>
   <path class="fil32" d="M100923 112317c2567,-99 4489,-1699 5865,-1426 1377,273 2568,1364 4478,1463 1909,100 1512,124 273,199 -1241,74 -2493,-137 -3411,-633 -641,-347 -1125,-626 -1709,-641 -25,152 -323,223 -555,309 -272,100 -256,164 -284,295 -28,132 -563,480 -950,392 -388,-88 303,-404 -312,-268 -442,98 -884,244 -955,233 -635,136 -1417,195 -2440,77z"/>
   <path class="fil32" d="M150238 83803c1752,-68 3063,-1159 4002,-973 939,186 1752,931 3055,998 1303,68 1032,85 186,136 -846,51 -1701,-93 -2327,-432 -437,-236 -767,-427 -1166,-437 -17,104 -220,152 -379,211 -185,68 -174,111 -193,201 -19,90 -384,327 -648,267 -265,-60 207,-275 -213,-182 -301,66 -604,166 -652,159 -433,92 -966,132 -1665,52z"/>
   <path class="fil32" d="M178682 111410c2494,-96 4361,-1650 5698,-1385 1338,265 2494,1325 4350,1421 1855,97 1469,121 265,193 -1205,72 -2422,-132 -3313,-614 -623,-337 -1093,-609 -1661,-623 -24,148 -313,217 -539,300 -264,97 -248,159 -275,287 -28,128 -547,465 -924,380 -376,-86 295,-392 -302,-260 -429,95 -860,237 -929,226 -616,132 -1376,189 -2370,75z"/>
   <path class="fil32" d="M11854 75103c1743,-68 3049,-1154 3984,-969 935,185 1744,926 3041,994 1297,67 1027,84 185,135 -842,50 -1693,-93 -2316,-430 -436,-235 -765,-425 -1162,-435 -16,103 -219,151 -377,209 -184,68 -173,112 -192,201 -19,89 -383,325 -646,266 -263,-60 207,-274 -211,-182 -300,66 -601,166 -649,158 -431,93 -962,132 -1657,53z"/>
   <path class="fil32" d="M30428 79303c1743,-67 3049,-1153 3984,-968 935,185 1743,926 3041,994 1297,67 1027,84 185,134 -842,51 -1693,-92 -2316,-429 -436,-236 -764,-426 -1162,-436 -16,104 -218,152 -376,210 -185,68 -174,111 -193,201 -19,89 -383,325 -645,265 -264,-59 206,-273 -212,-181 -300,66 -601,166 -649,158 -431,92 -962,132 -1657,52z"/>
   <path class="fil32" d="M102356 93864c1743,-68 3049,-1154 3984,-969 935,186 1744,927 3041,994 1297,68 1027,84 185,135 -842,51 -1693,-93 -2316,-430 -436,-235 -764,-425 -1161,-435 -17,103 -219,151 -377,210 -185,67 -174,111 -193,200 -19,90 -382,326 -645,266 -263,-60 206,-274 -212,-182 -300,67 -601,166 -649,159 -431,92 -962,132 -1657,52z"/>
   <path class="fil32" d="M174722 77367c1744,-67 3049,-1153 3984,-968 935,185 1744,926 3041,994 1297,67 1028,84 186,135 -843,50 -1694,-93 -2317,-430 -435,-236 -764,-426 -1161,-436 -17,104 -219,152 -377,210 -184,68 -173,111 -192,201 -19,89 -383,325 -646,266 -263,-60 206,-274 -211,-182 -301,66 -601,166 -650,158 -431,92 -962,132 -1657,52z"/>
   <path class="fil32" d="M59427 77600c1744,-67 3049,-1154 3984,-968 935,185 1744,926 3041,994 1297,67 1028,84 186,134 -843,51 -1693,-92 -2317,-429 -435,-236 -764,-426 -1161,-436 -16,104 -219,152 -377,210 -184,68 -173,111 -192,201 -19,89 -383,325 -646,265 -263,-59 206,-273 -211,-181 -300,66 -601,166 -650,158 -431,92 -962,132 -1657,52z"/>
   <path class="fil32" d="M59427 77600c1744,-67 3049,-1154 3984,-968 935,185 1744,926 3041,994 1297,67 1028,84 186,134 -843,51 -1693,-92 -2317,-429 -435,-236 -764,-426 -1161,-436 -16,104 -219,152 -377,210 -184,68 -173,111 -192,201 -19,89 -383,325 -646,265 -263,-59 206,-273 -211,-181 -300,66 -601,166 -650,158 -431,92 -962,132 -1657,52z"/>
   <path class="fil32" d="M77490 106300c2604,-100 4554,-1723 5950,-1446 1396,277 2604,1383 4541,1484 1938,101 1535,126 277,201 -1258,76 -2528,-138 -3459,-641 -651,-352 -1141,-636 -1734,-650 -25,154 -327,226 -563,313 -275,101 -259,166 -288,299 -28,134 -571,486 -964,397 -393,-89 308,-409 -316,-271 -448,99 -897,248 -969,236 -644,138 -1437,198 -2475,78z"/>
   <path class="fil32" d="M132845 73921c1021,-39 1786,-676 2334,-567 547,108 1021,542 1781,582 759,39 602,49 108,79 -493,30 -991,-54 -1356,-252 -256,-138 -448,-249 -681,-255 -9,61 -128,89 -220,123 -108,40 -102,65 -113,118 -11,52 -224,190 -378,155 -154,-35 121,-160 -124,-106 -176,39 -352,97 -380,93 -253,54 -564,77 -971,30z"/>
   <path class="fil33" d="M5493 18431c0,0 29535,-375 30534,1875 1000,2250 12999,4624 27872,4250 14873,-375 14373,-6249 33870,-6125 19498,125 27997,-1999 41121,0 13123,2000 15123,7749 28746,5875 13624,-1875 14127,-5875 27811,-5875l0 2750c0,0 -8313,-1125 -12375,1124 -4062,2250 -6499,2875 -16623,3750 -10124,875 -18373,-2750 -28496,-3749 -10124,-1000 -41620,-2500 -48495,-1375 -6874,1125 -15497,4374 -25496,4874 -9999,500 -22872,-125 -29496,-1499 -6625,-1375 -8038,-3688 -28973,-3125l0 -2750z"/>
   <path class="fil34" d="M195447 12440c0,0 -29535,375 -30534,-1874 -1000,-2250 -12999,-4625 -27872,-4250 -14873,375 -14373,6249 -33870,6124 -19498,-124 -27997,2000 -41121,0 -13123,-1999 -15123,-7749 -28746,-5874 -13624,1875 -14127,5874 -27811,5874l0 -2749c0,0 8313,1125 12375,-1125 4062,-2249 6499,-2875 16623,-3749 10124,-875 18373,2749 28496,3749 10124,1000 41620,2500 48495,1375 6874,-1125 15497,-4375 25496,-4875 9999,-499 22872,125 29496,1500 6625,1375 8038,3687 28973,3125l0 2749z"/>
  </g>
 </g>
</svg>
